<mxfile host="65bd71144e">
    <diagram id="xva2MECG3VPQPZKDk1kb" name="Page-1">
        <mxGraphModel dx="1004" dy="1223" grid="1" gridSize="10" guides="1" tooltips="1" connect="1" arrows="1" fold="1" page="1" pageScale="1" pageWidth="1169" pageHeight="1654" math="0" shadow="0">
            <root>
                <mxCell id="0"/>
                <mxCell id="1" parent="0"/>
                <mxCell id="351" style="edgeStyle=none;html=1;exitX=0.5;exitY=1;exitDx=0;exitDy=0;" edge="1" parent="1" source="65" target="350">
                    <mxGeometry relative="1" as="geometry"/>
                </mxCell>
                <mxCell id="357" style="edgeStyle=none;html=1;exitX=1;exitY=0.5;exitDx=0;exitDy=0;" edge="1" parent="1" source="65" target="354">
                    <mxGeometry relative="1" as="geometry"/>
                </mxCell>
                <mxCell id="65" value="Homepage&lt;br&gt;cats4lyf.com/" style="rounded=0;whiteSpace=wrap;html=1;fillColor=#a20025;fontColor=#ffffff;strokeColor=#6F0000;" parent="1" vertex="1">
                    <mxGeometry x="1450" y="60" width="150" height="60" as="geometry"/>
                </mxCell>
                <mxCell id="67" value="https://thecatapi.com/" style="text;align=center;verticalAlign=middle;resizable=0;points=[];autosize=1;strokeColor=none;fillColor=none;fontSize=6;html=1;" parent="1" vertex="1">
                    <mxGeometry x="140" y="120" width="80" height="20" as="geometry"/>
                </mxCell>
                <mxCell id="71" value="" style="edgeStyle=none;html=1;fontSize=6;" parent="1" source="68" target="70" edge="1">
                    <mxGeometry relative="1" as="geometry"/>
                </mxCell>
                <mxCell id="68" value="Add to basket function" style="whiteSpace=wrap;html=1;fillColor=#1ba1e2;strokeColor=#006EAF;fontColor=#ffffff;rounded=0;" parent="1" vertex="1">
                    <mxGeometry x="1190" y="545" width="120" height="60" as="geometry"/>
                </mxCell>
                <mxCell id="70" value="ADDS CAT TO&lt;br&gt;BASKET STATE" style="rhombus;whiteSpace=wrap;html=1;fillColor=#e3c800;strokeColor=#B09500;fontColor=#000000;rounded=0;" parent="1" vertex="1">
                    <mxGeometry x="1442.5" y="537" width="165" height="80" as="geometry"/>
                </mxCell>
                <mxCell id="123" value="" style="edgeStyle=none;html=1;fontSize=6;exitX=0.5;exitY=1;exitDx=0;exitDy=0;" parent="1" source="360" target="122" edge="1">
                    <mxGeometry relative="1" as="geometry">
                        <mxPoint x="1525" y="847" as="sourcePoint"/>
                    </mxGeometry>
                </mxCell>
                <mxCell id="338" value="CLICK CHECKOUT ON BASKET MODEL" style="edgeLabel;html=1;align=center;verticalAlign=middle;resizable=0;points=[];" parent="123" vertex="1" connectable="0">
                    <mxGeometry x="-0.4" y="2" relative="1" as="geometry">
                        <mxPoint as="offset"/>
                    </mxGeometry>
                </mxCell>
                <mxCell id="76" value="NAVIGATE TO&lt;br&gt;CAT ID ENDPOINT&lt;br&gt;/cats/:id" style="whiteSpace=wrap;html=1;fillColor=#1ba1e2;strokeColor=#006EAF;fontColor=#ffffff;rounded=0;" parent="1" vertex="1">
                    <mxGeometry x="1754" y="545" width="120" height="60" as="geometry"/>
                </mxCell>
                <mxCell id="125" value="" style="edgeStyle=none;html=1;fontSize=6;entryX=0.5;entryY=0;entryDx=0;entryDy=0;" parent="1" source="122" target="127" edge="1">
                    <mxGeometry relative="1" as="geometry">
                        <mxPoint x="1517.5" y="1077" as="targetPoint"/>
                    </mxGeometry>
                </mxCell>
                <mxCell id="339" value="FILL OUT FORM AND CLICK SUMBIT" style="edgeLabel;html=1;align=center;verticalAlign=middle;resizable=0;points=[];" parent="125" vertex="1" connectable="0">
                    <mxGeometry x="-0.1884" y="-2" relative="1" as="geometry">
                        <mxPoint as="offset"/>
                    </mxGeometry>
                </mxCell>
                <mxCell id="122" value="NAVIGATE TO&lt;br&gt;CHECKOUT PAGE&lt;br&gt;/Checkout" style="whiteSpace=wrap;html=1;fillColor=#1ba1e2;strokeColor=#006EAF;fontColor=#ffffff;rounded=0;" parent="1" vertex="1">
                    <mxGeometry x="1465" y="952" width="120" height="60" as="geometry"/>
                </mxCell>
                <mxCell id="127" value="COMPLETE PURCHASE" style="whiteSpace=wrap;html=1;fillColor=#e51400;strokeColor=#B20000;fontColor=#ffffff;rounded=0;" parent="1" vertex="1">
                    <mxGeometry x="1465" y="1150" width="120" height="60" as="geometry"/>
                </mxCell>
                <mxCell id="131" value="NAVIGATE TO ABOUT PAGE&lt;br&gt;/About" style="whiteSpace=wrap;html=1;fillColor=#1ba1e2;strokeColor=#006EAF;fontColor=#ffffff;rounded=0;" parent="1" vertex="1">
                    <mxGeometry x="2000" y="100" width="120" height="60" as="geometry"/>
                </mxCell>
                <mxCell id="181" value="name" style="text;html=1;strokeColor=none;fillColor=none;align=center;verticalAlign=middle;whiteSpace=wrap;rounded=0;" parent="1" vertex="1">
                    <mxGeometry x="885" y="150" width="60" height="30" as="geometry"/>
                </mxCell>
                <mxCell id="182" value="FAKER DATA" style="rounded=0;whiteSpace=wrap;html=1;" parent="1" vertex="1">
                    <mxGeometry x="860" y="90" width="120" height="60" as="geometry"/>
                </mxCell>
                <mxCell id="183" value="THIRD PARTY PACKAGES" style="rounded=0;whiteSpace=wrap;html=1;" parent="1" vertex="1">
                    <mxGeometry x="525" y="1000" width="120" height="60" as="geometry"/>
                </mxCell>
                <mxCell id="184" value="sex" style="text;html=1;strokeColor=none;fillColor=none;align=center;verticalAlign=middle;whiteSpace=wrap;rounded=0;" parent="1" vertex="1">
                    <mxGeometry x="885" y="180" width="60" height="30" as="geometry"/>
                </mxCell>
                <mxCell id="186" value="&lt;div style=&quot;color: rgb(197, 200, 198); background-color: rgb(30, 30, 30); font-family: Consolas, &amp;quot;Courier New&amp;quot;, monospace; font-size: 14px; line-height: 19px;&quot;&gt;&lt;span style=&quot;color: #6089b4;font-weight: bold;&quot;&gt;react-icons&lt;/span&gt;&lt;/div&gt;" style="text;html=1;strokeColor=none;fillColor=none;align=center;verticalAlign=middle;whiteSpace=wrap;rounded=0;" parent="1" vertex="1">
                    <mxGeometry x="540" y="1060" width="90" height="30" as="geometry"/>
                </mxCell>
                <mxCell id="187" value="&lt;div style=&quot;color: rgb(197, 200, 198); background-color: rgb(30, 30, 30); font-family: Consolas, &amp;quot;Courier New&amp;quot;, monospace; font-size: 14px; line-height: 19px;&quot;&gt;&lt;span style=&quot;color: #6089b4;font-weight: bold;&quot;&gt;react-router-dom&lt;/span&gt;&lt;/div&gt;" style="text;html=1;align=center;verticalAlign=middle;resizable=0;points=[];autosize=1;strokeColor=none;fillColor=none;" parent="1" vertex="1">
                    <mxGeometry x="510" y="1090" width="150" height="30" as="geometry"/>
                </mxCell>
                <mxCell id="188" value="&lt;div style=&quot;color: rgb(197, 200, 198); background-color: rgb(30, 30, 30); font-family: Consolas, &amp;quot;Courier New&amp;quot;, monospace; font-size: 14px; line-height: 19px;&quot;&gt;&lt;span style=&quot;color: #6089b4;font-weight: bold;&quot;&gt;react-toastify&lt;/span&gt;&lt;/div&gt;" style="text;html=1;align=center;verticalAlign=middle;resizable=0;points=[];autosize=1;strokeColor=none;fillColor=none;" parent="1" vertex="1">
                    <mxGeometry x="520" y="1120" width="130" height="30" as="geometry"/>
                </mxCell>
                <mxCell id="189" value="&lt;div style=&quot;color: rgb(197, 200, 198); background-color: rgb(30, 30, 30); font-family: Consolas, &amp;quot;Courier New&amp;quot;, monospace; font-size: 14px; line-height: 19px;&quot;&gt;&lt;span style=&quot;color: #6089b4;font-weight: bold;&quot;&gt;swiper&lt;/span&gt;&lt;/div&gt;" style="text;html=1;align=center;verticalAlign=middle;resizable=0;points=[];autosize=1;strokeColor=none;fillColor=none;" parent="1" vertex="1">
                    <mxGeometry x="550" y="1150" width="70" height="30" as="geometry"/>
                </mxCell>
                <mxCell id="190" value="&lt;div style=&quot;color: rgb(197, 200, 198); background-color: rgb(30, 30, 30); font-family: Consolas, &amp;quot;Courier New&amp;quot;, monospace; font-size: 14px; line-height: 19px;&quot;&gt;&lt;span style=&quot;color: #6089b4;font-weight: bold;&quot;&gt;faker-js&lt;/span&gt;&lt;/div&gt;" style="text;html=1;align=center;verticalAlign=middle;resizable=0;points=[];autosize=1;strokeColor=none;fillColor=none;" parent="1" vertex="1">
                    <mxGeometry x="540" y="1180" width="90" height="30" as="geometry"/>
                </mxCell>
                <mxCell id="191" value="&lt;div style=&quot;color: rgb(197, 200, 198); background-color: rgb(30, 30, 30); font-family: Consolas, &amp;quot;Courier New&amp;quot;, monospace; font-size: 14px; line-height: 19px;&quot;&gt;&lt;span style=&quot;color: #6089b4;font-weight: bold;&quot;&gt;eslint-plugin&lt;/span&gt;&lt;/div&gt;" style="text;html=1;align=center;verticalAlign=middle;resizable=0;points=[];autosize=1;strokeColor=none;fillColor=none;" parent="1" vertex="1">
                    <mxGeometry x="525" y="1210" width="120" height="30" as="geometry"/>
                </mxCell>
                <mxCell id="192" value="chatGPT" style="rounded=0;whiteSpace=wrap;html=1;" parent="1" vertex="1">
                    <mxGeometry x="475" y="75" width="120" height="60" as="geometry"/>
                </mxCell>
                <mxCell id="193" value="random cat descriptions" style="text;html=1;align=center;verticalAlign=middle;resizable=0;points=[];autosize=1;strokeColor=none;fillColor=none;" parent="1" vertex="1">
                    <mxGeometry x="460" y="195" width="150" height="30" as="geometry"/>
                </mxCell>
                <mxCell id="194" value="About pages content" style="text;html=1;strokeColor=none;fillColor=none;align=center;verticalAlign=middle;whiteSpace=wrap;rounded=0;" parent="1" vertex="1">
                    <mxGeometry x="465" y="135" width="140" height="30" as="geometry"/>
                </mxCell>
                <mxCell id="195" value="Contact pages content" style="text;html=1;strokeColor=none;fillColor=none;align=center;verticalAlign=middle;whiteSpace=wrap;rounded=0;" parent="1" vertex="1">
                    <mxGeometry x="470" y="165" width="130" height="30" as="geometry"/>
                </mxCell>
                <mxCell id="196" value="API" style="rounded=0;whiteSpace=wrap;html=1;" parent="1" vertex="1">
                    <mxGeometry x="120" y="60" width="120" height="60" as="geometry"/>
                </mxCell>
                <mxCell id="197" value="price" style="text;html=1;strokeColor=none;fillColor=none;align=center;verticalAlign=middle;whiteSpace=wrap;rounded=0;" parent="1" vertex="1">
                    <mxGeometry x="885" y="210" width="60" height="30" as="geometry"/>
                </mxCell>
                <mxCell id="198" value="FUNCTIONS" style="rounded=0;whiteSpace=wrap;html=1;" parent="1" vertex="1">
                    <mxGeometry x="880" y="890" width="120" height="60" as="geometry"/>
                </mxCell>
                <mxCell id="199" value="&lt;div style=&quot;color: rgb(197, 200, 198); background-color: rgb(30, 30, 30); font-family: Consolas, &amp;quot;Courier New&amp;quot;, monospace; font-size: 14px; line-height: 19px;&quot;&gt;&lt;span style=&quot;color: #ce6700;&quot;&gt;fetchData&lt;/span&gt;&lt;/div&gt;" style="text;html=1;align=center;verticalAlign=middle;resizable=0;points=[];autosize=1;strokeColor=none;fillColor=none;" parent="1" vertex="1">
                    <mxGeometry x="895" y="950" width="90" height="30" as="geometry"/>
                </mxCell>
                <mxCell id="201" value="&lt;div style=&quot;color: rgb(197, 200, 198); background-color: rgb(30, 30, 30); font-family: Consolas, &amp;quot;Courier New&amp;quot;, monospace; font-size: 14px; line-height: 19px;&quot;&gt;&lt;span style=&quot;color: #ce6700;&quot;&gt;handleToggleBasket&lt;/span&gt;&lt;/div&gt;" style="text;html=1;align=center;verticalAlign=middle;resizable=0;points=[];autosize=1;strokeColor=none;fillColor=none;" parent="1" vertex="1">
                    <mxGeometry x="865" y="983" width="160" height="30" as="geometry"/>
                </mxCell>
                <mxCell id="202" value="&lt;div style=&quot;color: rgb(197, 200, 198); background-color: rgb(30, 30, 30); font-family: Consolas, &amp;quot;Courier New&amp;quot;, monospace; font-size: 14px; line-height: 19px;&quot;&gt;&lt;span style=&quot;color: #ce6700;&quot;&gt;handleAddToBasket&lt;/span&gt;&lt;/div&gt;" style="text;html=1;align=center;verticalAlign=middle;resizable=0;points=[];autosize=1;strokeColor=none;fillColor=none;" parent="1" vertex="1">
                    <mxGeometry x="865" y="1013" width="150" height="30" as="geometry"/>
                </mxCell>
                <mxCell id="203" value="&lt;div style=&quot;color: rgb(197, 200, 198); background-color: rgb(30, 30, 30); font-family: Consolas, &amp;quot;Courier New&amp;quot;, monospace; font-size: 14px; line-height: 19px;&quot;&gt;&lt;span style=&quot;color: #ce6700;&quot;&gt;handleDeleteFromBasket&lt;/span&gt;&lt;/div&gt;" style="text;html=1;align=center;verticalAlign=middle;resizable=0;points=[];autosize=1;strokeColor=none;fillColor=none;" parent="1" vertex="1">
                    <mxGeometry x="860" y="1043" width="190" height="30" as="geometry"/>
                </mxCell>
                <mxCell id="204" value="&lt;div style=&quot;color: rgb(197, 200, 198); background-color: rgb(30, 30, 30); font-family: Consolas, &amp;quot;Courier New&amp;quot;, monospace; font-size: 14px; line-height: 19px;&quot;&gt;&lt;span style=&quot;color: #ce6700;&quot;&gt;calculateTotal&lt;/span&gt;&lt;/div&gt;" style="text;html=1;align=center;verticalAlign=middle;resizable=0;points=[];autosize=1;strokeColor=none;fillColor=none;" parent="1" vertex="1">
                    <mxGeometry x="875" y="1073" width="130" height="30" as="geometry"/>
                </mxCell>
                <mxCell id="205" value="&lt;div style=&quot;color: rgb(197, 200, 198); background-color: rgb(30, 30, 30); font-family: Consolas, &amp;quot;Courier New&amp;quot;, monospace; font-size: 14px; line-height: 19px;&quot;&gt;&lt;span style=&quot;color: #ce6700;&quot;&gt;changeQuantity&lt;/span&gt;&lt;/div&gt;" style="text;html=1;align=center;verticalAlign=middle;resizable=0;points=[];autosize=1;strokeColor=none;fillColor=none;" parent="1" vertex="1">
                    <mxGeometry x="875" y="1103" width="130" height="30" as="geometry"/>
                </mxCell>
                <mxCell id="206" value="Pages" style="rounded=0;whiteSpace=wrap;html=1;" parent="1" vertex="1">
                    <mxGeometry x="690" y="370" width="120" height="60" as="geometry"/>
                </mxCell>
                <mxCell id="207" value="&lt;span style=&quot;color: rgb(255, 255, 255);&quot;&gt;cats4lyf.com/&lt;/span&gt;" style="text;html=1;align=center;verticalAlign=middle;resizable=0;points=[];autosize=1;strokeColor=none;fillColor=none;" parent="1" vertex="1">
                    <mxGeometry x="705" y="440" width="90" height="30" as="geometry"/>
                </mxCell>
                <mxCell id="208" value="&lt;span style=&quot;color: rgb(255, 255, 255);&quot;&gt;cats4lyf.com/&lt;/span&gt;Contact" style="text;html=1;align=center;verticalAlign=middle;resizable=0;points=[];autosize=1;strokeColor=none;fillColor=none;" parent="1" vertex="1">
                    <mxGeometry x="685" y="470" width="130" height="30" as="geometry"/>
                </mxCell>
                <mxCell id="209" value="&lt;span style=&quot;color: rgb(255, 255, 255);&quot;&gt;cats4lyf.com/&lt;/span&gt;About" style="text;html=1;align=center;verticalAlign=middle;resizable=0;points=[];autosize=1;strokeColor=none;fillColor=none;" parent="1" vertex="1">
                    <mxGeometry x="690" y="500" width="120" height="30" as="geometry"/>
                </mxCell>
                <mxCell id="210" value="&lt;span style=&quot;color: rgb(255, 255, 255);&quot;&gt;cats4lyf.com/&lt;/span&gt;Checkout" style="text;html=1;align=center;verticalAlign=middle;resizable=0;points=[];autosize=1;strokeColor=none;fillColor=none;" parent="1" vertex="1">
                    <mxGeometry x="685" y="540" width="140" height="30" as="geometry"/>
                </mxCell>
                <mxCell id="211" value="&lt;span style=&quot;color: rgb(255, 255, 255);&quot;&gt;cats4lyf.com/&lt;/span&gt;Cats/:id" style="text;html=1;align=center;verticalAlign=middle;resizable=0;points=[];autosize=1;strokeColor=none;fillColor=none;" parent="1" vertex="1">
                    <mxGeometry x="690" y="575" width="130" height="30" as="geometry"/>
                </mxCell>
                <mxCell id="212" value="CAT API DATA" style="whiteSpace=wrap;html=1;" parent="1" vertex="1">
                    <mxGeometry x="110" y="300" width="120" height="60" as="geometry"/>
                </mxCell>
                <mxCell id="213" value="&lt;div style=&quot;color: rgb(197, 200, 198); background-color: rgb(30, 30, 30); font-family: Consolas, &amp;quot;Courier New&amp;quot;, monospace; font-size: 14px; line-height: 19px;&quot;&gt;&lt;span style=&quot;color: #9872a2;&quot;&gt;id&lt;/span&gt;&lt;/div&gt;" style="text;html=1;align=center;verticalAlign=middle;resizable=0;points=[];autosize=1;strokeColor=none;fillColor=none;" parent="1" vertex="1">
                    <mxGeometry x="145" y="360" width="40" height="30" as="geometry"/>
                </mxCell>
                <mxCell id="214" value="&lt;div style=&quot;color: rgb(197, 200, 198); background-color: rgb(30, 30, 30); font-family: Consolas, &amp;quot;Courier New&amp;quot;, monospace; font-size: 14px; line-height: 19px;&quot;&gt;&lt;span style=&quot;color: #9872a2;&quot;&gt;image url&lt;/span&gt;&lt;/div&gt;" style="text;html=1;align=center;verticalAlign=middle;resizable=0;points=[];autosize=1;strokeColor=none;fillColor=none;" parent="1" vertex="1">
                    <mxGeometry x="120" y="390" width="90" height="30" as="geometry"/>
                </mxCell>
                <mxCell id="215" value="&lt;div style=&quot;color: rgb(197, 200, 198); background-color: rgb(30, 30, 30); font-family: Consolas, &amp;quot;Courier New&amp;quot;, monospace; font-size: 14px; line-height: 19px;&quot;&gt;&lt;span style=&quot;color: #9872a2;&quot;&gt;breed name&lt;/span&gt;&lt;/div&gt;" style="text;html=1;align=center;verticalAlign=middle;resizable=0;points=[];autosize=1;strokeColor=none;fillColor=none;" parent="1" vertex="1">
                    <mxGeometry x="120" y="420" width="100" height="30" as="geometry"/>
                </mxCell>
                <mxCell id="216" value="&lt;div style=&quot;color: rgb(197, 200, 198); background-color: rgb(30, 30, 30); font-family: Consolas, &amp;quot;Courier New&amp;quot;, monospace; font-size: 14px; line-height: 19px;&quot;&gt;&lt;span style=&quot;color: #9872a2;&quot;&gt;breed description&lt;/span&gt;&lt;/div&gt;" style="text;html=1;align=center;verticalAlign=middle;resizable=0;points=[];autosize=1;strokeColor=none;fillColor=none;" parent="1" vertex="1">
                    <mxGeometry x="95" y="445" width="150" height="30" as="geometry"/>
                </mxCell>
                <mxCell id="217" value="&lt;div style=&quot;color: rgb(197, 200, 198); background-color: rgb(30, 30, 30); font-family: Consolas, &amp;quot;Courier New&amp;quot;, monospace; font-size: 14px; line-height: 19px;&quot;&gt;&lt;span style=&quot;color: #9872a2;&quot;&gt;temperament&lt;/span&gt;&lt;/div&gt;" style="text;html=1;align=center;verticalAlign=middle;resizable=0;points=[];autosize=1;strokeColor=none;fillColor=none;" parent="1" vertex="1">
                    <mxGeometry x="115" y="475" width="110" height="30" as="geometry"/>
                </mxCell>
                <mxCell id="218" value="&lt;div style=&quot;color: rgb(197, 200, 198); background-color: rgb(30, 30, 30); font-family: Consolas, &amp;quot;Courier New&amp;quot;, monospace; font-size: 14px; line-height: 19px;&quot;&gt;&lt;span style=&quot;color: #9872a2;&quot;&gt;origin&lt;/span&gt;&lt;/div&gt;" style="text;html=1;align=center;verticalAlign=middle;resizable=0;points=[];autosize=1;strokeColor=none;fillColor=none;" parent="1" vertex="1">
                    <mxGeometry x="130" y="505" width="70" height="30" as="geometry"/>
                </mxCell>
                <mxCell id="219" value="&lt;div style=&quot;color: rgb(197, 200, 198); background-color: rgb(30, 30, 30); font-family: Consolas, &amp;quot;Courier New&amp;quot;, monospace; font-size: 14px; line-height: 19px;&quot;&gt;&lt;span style=&quot;color: #9872a2;&quot;&gt;life_span&lt;/span&gt;&lt;/div&gt;" style="text;html=1;align=center;verticalAlign=middle;resizable=0;points=[];autosize=1;strokeColor=none;fillColor=none;" parent="1" vertex="1">
                    <mxGeometry x="120" y="535" width="90" height="30" as="geometry"/>
                </mxCell>
                <mxCell id="220" value="&lt;div style=&quot;color: rgb(197, 200, 198); background-color: rgb(30, 30, 30); font-family: Consolas, &amp;quot;Courier New&amp;quot;, monospace; font-size: 14px; line-height: 19px;&quot;&gt;&lt;span style=&quot;color: #9872a2;&quot;&gt;wikipedia_url&lt;/span&gt;&lt;/div&gt;" style="text;html=1;align=center;verticalAlign=middle;resizable=0;points=[];autosize=1;strokeColor=none;fillColor=none;" parent="1" vertex="1">
                    <mxGeometry x="110" y="565" width="120" height="30" as="geometry"/>
                </mxCell>
                <mxCell id="221" value="&lt;div style=&quot;color: rgb(197, 200, 198); background-color: rgb(30, 30, 30); font-family: Consolas, &amp;quot;Courier New&amp;quot;, monospace; font-size: 14px; line-height: 19px;&quot;&gt;&lt;span style=&quot;color: #9872a2;&quot;&gt;indoor or outdoor&lt;/span&gt;&lt;/div&gt;" style="text;html=1;align=center;verticalAlign=middle;resizable=0;points=[];autosize=1;strokeColor=none;fillColor=none;" parent="1" vertex="1">
                    <mxGeometry x="90" y="595" width="150" height="30" as="geometry"/>
                </mxCell>
                <mxCell id="223" value="&lt;div style=&quot;color: rgb(197, 200, 198); background-color: rgb(30, 30, 30); font-family: Consolas, &amp;quot;Courier New&amp;quot;, monospace; font-size: 14px; line-height: 19px;&quot;&gt;&lt;span style=&quot;color: #9872a2;&quot;&gt;weight metric&lt;/span&gt;&lt;/div&gt;" style="text;html=1;align=center;verticalAlign=middle;resizable=0;points=[];autosize=1;strokeColor=none;fillColor=none;" parent="1" vertex="1">
                    <mxGeometry x="110" y="625" width="120" height="30" as="geometry"/>
                </mxCell>
                <mxCell id="224" value="&lt;div style=&quot;color: rgb(197, 200, 198); background-color: rgb(30, 30, 30); font-family: Consolas, &amp;quot;Courier New&amp;quot;, monospace; font-size: 14px; line-height: 19px;&quot;&gt;&lt;span style=&quot;color: #9872a2;&quot;&gt;rare or not&lt;/span&gt;&lt;/div&gt;" style="text;html=1;align=center;verticalAlign=middle;resizable=0;points=[];autosize=1;strokeColor=none;fillColor=none;" parent="1" vertex="1">
                    <mxGeometry x="115" y="655" width="110" height="30" as="geometry"/>
                </mxCell>
                <mxCell id="226" value="STATES" style="whiteSpace=wrap;html=1;" parent="1" vertex="1">
                    <mxGeometry x="160" y="730" width="120" height="60" as="geometry"/>
                </mxCell>
                <mxCell id="227" value="&lt;div style=&quot;color: rgb(197, 200, 198); background-color: rgb(30, 30, 30); font-family: Consolas, &amp;quot;Courier New&amp;quot;, monospace; font-size: 14px; line-height: 19px;&quot;&gt;&lt;span style=&quot;color: rgb(96, 137, 180);&quot;&gt;basketItems:&amp;nbsp;&lt;/span&gt;&lt;span style=&quot;color: #9a9b99;&quot;&gt;the items in the basket&lt;/span&gt;&lt;/div&gt;" style="text;html=1;align=center;verticalAlign=middle;resizable=0;points=[];autosize=1;strokeColor=none;fillColor=none;" parent="1" vertex="1">
                    <mxGeometry x="70" y="793" width="300" height="30" as="geometry"/>
                </mxCell>
                <mxCell id="228" value="&lt;div style=&quot;color: rgb(197, 200, 198); background-color: rgb(30, 30, 30); font-family: Consolas, &amp;quot;Courier New&amp;quot;, monospace; font-size: 14px; line-height: 19px;&quot;&gt;&lt;span style=&quot;color: rgb(96, 137, 180);&quot;&gt;toggleBasket:&amp;nbsp;&lt;/span&gt;&lt;span style=&quot;color: #9a9b99;&quot;&gt;if the basket slider is open or closed&lt;/span&gt;&lt;/div&gt;" style="text;html=1;align=center;verticalAlign=middle;resizable=0;points=[];autosize=1;strokeColor=none;fillColor=none;" parent="1" vertex="1">
                    <mxGeometry x="20" y="823" width="420" height="30" as="geometry"/>
                </mxCell>
                <mxCell id="229" value="&lt;div style=&quot;color: rgb(197, 200, 198); background-color: rgb(30, 30, 30); font-family: Consolas, &amp;quot;Courier New&amp;quot;, monospace; font-size: 14px; line-height: 19px;&quot;&gt;&lt;span style=&quot;color: rgb(96, 137, 180);&quot;&gt;catData:&amp;nbsp;&lt;/span&gt;&lt;span style=&quot;color: #9a9b99;&quot;&gt;holds the cat data&lt;/span&gt;&lt;/div&gt;" style="text;html=1;align=center;verticalAlign=middle;resizable=0;points=[];autosize=1;strokeColor=none;fillColor=none;" parent="1" vertex="1">
                    <mxGeometry x="105" y="853" width="230" height="30" as="geometry"/>
                </mxCell>
                <mxCell id="230" value="&lt;div style=&quot;color: rgb(197, 200, 198); background-color: rgb(30, 30, 30); font-family: Consolas, &amp;quot;Courier New&amp;quot;, monospace; font-size: 14px; line-height: 19px;&quot;&gt;&lt;span style=&quot;color: rgb(96, 137, 180);&quot;&gt;loading&lt;/span&gt;&lt;span style=&quot;color: rgb(96, 137, 180);&quot;&gt;:&amp;nbsp;&lt;/span&gt;&lt;span style=&quot;color: #9a9b99;&quot;&gt;Loading state for the API fetch&lt;/span&gt;&lt;/div&gt;" style="text;html=1;align=center;verticalAlign=middle;resizable=0;points=[];autosize=1;strokeColor=none;fillColor=none;" parent="1" vertex="1">
                    <mxGeometry x="95" y="913" width="330" height="30" as="geometry"/>
                </mxCell>
                <mxCell id="231" value="&lt;div style=&quot;color: rgb(197, 200, 198); background-color: rgb(30, 30, 30); font-family: Consolas, &amp;quot;Courier New&amp;quot;, monospace; font-size: 14px; line-height: 19px;&quot;&gt;&lt;span style=&quot;color: rgb(96, 137, 180);&quot;&gt;basketTotal:&amp;nbsp;&lt;/span&gt;&lt;span style=&quot;color: #9a9b99;&quot;&gt;total price of the basket items&lt;/span&gt;&lt;/div&gt;" style="text;html=1;align=center;verticalAlign=middle;resizable=0;points=[];autosize=1;strokeColor=none;fillColor=none;" parent="1" vertex="1">
                    <mxGeometry x="170" y="883" width="100" height="30" as="geometry"/>
                </mxCell>
                <mxCell id="233" value="COMPONENTS" style="whiteSpace=wrap;html=1;" parent="1" vertex="1">
                    <mxGeometry x="1000" y="430" width="120" height="60" as="geometry"/>
                </mxCell>
                <mxCell id="234" value="&lt;div style=&quot;color: rgb(197, 200, 198); background-color: rgb(30, 30, 30); font-family: Consolas, &amp;quot;Courier New&amp;quot;, monospace; font-size: 14px; line-height: 19px;&quot;&gt;&lt;span style=&quot;color: #ce6700;&quot;&gt;BasketItem&lt;/span&gt;&lt;/div&gt;" style="text;html=1;align=center;verticalAlign=middle;resizable=0;points=[];autosize=1;strokeColor=none;fillColor=none;" parent="1" vertex="1">
                    <mxGeometry x="1010" y="500" width="100" height="30" as="geometry"/>
                </mxCell>
                <mxCell id="235" value="&lt;div style=&quot;color: rgb(197, 200, 198); background-color: rgb(30, 30, 30); font-family: Consolas, &amp;quot;Courier New&amp;quot;, monospace; font-size: 14px; line-height: 19px;&quot;&gt;&lt;span style=&quot;color: #ce6700;&quot;&gt;BasketSlider&lt;/span&gt;&lt;/div&gt;" style="text;html=1;align=center;verticalAlign=middle;resizable=0;points=[];autosize=1;strokeColor=none;fillColor=none;" parent="1" vertex="1">
                    <mxGeometry x="1000" y="530" width="120" height="30" as="geometry"/>
                </mxCell>
                <mxCell id="237" value="&lt;div style=&quot;color: rgb(197, 200, 198); background-color: rgb(30, 30, 30); font-family: Consolas, &amp;quot;Courier New&amp;quot;, monospace; font-size: 14px; line-height: 19px;&quot;&gt;&lt;span style=&quot;color: #ce6700;&quot;&gt;Footer&lt;/span&gt;&lt;/div&gt;" style="text;html=1;align=center;verticalAlign=middle;resizable=0;points=[];autosize=1;strokeColor=none;fillColor=none;" parent="1" vertex="1">
                    <mxGeometry x="1025" y="590" width="70" height="30" as="geometry"/>
                </mxCell>
                <mxCell id="238" value="&lt;div style=&quot;color: rgb(197, 200, 198); background-color: rgb(30, 30, 30); font-family: Consolas, &amp;quot;Courier New&amp;quot;, monospace; font-size: 14px; line-height: 19px;&quot;&gt;&lt;div style=&quot;line-height: 19px;&quot;&gt;&lt;span style=&quot;color: #ce6700;&quot;&gt;HeroSlider&lt;/span&gt;&lt;/div&gt;&lt;/div&gt;" style="text;html=1;align=center;verticalAlign=middle;resizable=0;points=[];autosize=1;strokeColor=none;fillColor=none;" parent="1" vertex="1">
                    <mxGeometry x="1010" y="620" width="100" height="30" as="geometry"/>
                </mxCell>
                <mxCell id="239" value="&lt;div style=&quot;background-color: rgb(30, 30, 30); font-family: Consolas, &amp;quot;Courier New&amp;quot;, monospace; font-size: 14px; line-height: 19px;&quot;&gt;&lt;div style=&quot;line-height: 19px;&quot;&gt;&lt;font color=&quot;#ce6700&quot;&gt;NavBar&lt;/font&gt;&lt;/div&gt;&lt;/div&gt;" style="text;html=1;align=center;verticalAlign=middle;resizable=0;points=[];autosize=1;strokeColor=none;fillColor=none;" parent="1" vertex="1">
                    <mxGeometry x="1025" y="650" width="70" height="30" as="geometry"/>
                </mxCell>
                <mxCell id="241" value="&lt;div style=&quot;color: rgb(197, 200, 198); background-color: rgb(30, 30, 30); font-family: Consolas, &amp;quot;Courier New&amp;quot;, monospace; font-size: 14px; line-height: 19px;&quot;&gt;&lt;span style=&quot;color: #ce6700;&quot;&gt;Card&lt;/span&gt;&lt;/div&gt;" style="text;html=1;align=center;verticalAlign=middle;resizable=0;points=[];autosize=1;strokeColor=none;fillColor=none;" parent="1" vertex="1">
                    <mxGeometry x="1035" y="560" width="50" height="30" as="geometry"/>
                </mxCell>
                <mxCell id="242" value="&lt;div style=&quot;color: rgb(197, 200, 198); background-color: rgb(30, 30, 30); font-family: Consolas, &amp;quot;Courier New&amp;quot;, monospace; font-size: 14px; line-height: 19px;&quot;&gt;&lt;div style=&quot;line-height: 19px;&quot;&gt;&lt;span style=&quot;color: rgb(96, 137, 180);&quot;&gt;formData:&lt;/span&gt;&lt;span style=&quot;color: #9a9b99;&quot;&gt;form data useState&lt;/span&gt;&lt;/div&gt;&lt;/div&gt;" style="text;html=1;align=center;verticalAlign=middle;resizable=0;points=[];autosize=1;strokeColor=none;fillColor=none;" parent="1" vertex="1">
                    <mxGeometry x="280" y="530" width="230" height="30" as="geometry"/>
                </mxCell>
                <mxCell id="243" value="&lt;div style=&quot;color: rgb(197, 200, 198); background-color: rgb(30, 30, 30); font-family: Consolas, &amp;quot;Courier New&amp;quot;, monospace; font-size: 14px; line-height: 19px;&quot;&gt;&lt;span style=&quot;color: #ce6700;&quot;&gt;handleChange:&amp;nbsp;&lt;/span&gt;&lt;span style=&quot;color: rgb(154, 155, 153);&quot;&gt;Function&lt;/span&gt;&lt;/div&gt;" style="text;html=1;align=center;verticalAlign=middle;resizable=0;points=[];autosize=1;strokeColor=none;fillColor=none;" parent="1" vertex="1">
                    <mxGeometry x="330" y="560" width="190" height="30" as="geometry"/>
                </mxCell>
                <mxCell id="244" value="&lt;span style=&quot;color: rgb(206, 103, 0); background-color: rgb(30, 30, 30); font-family: Consolas, &amp;quot;Courier New&amp;quot;, monospace; font-size: 14px;&quot;&gt;handleSubmit:&amp;nbsp;&lt;/span&gt;&lt;span style=&quot;color: rgb(154, 155, 153); background-color: rgb(30, 30, 30); font-family: Consolas, &amp;quot;Courier New&amp;quot;, monospace; font-size: 14px;&quot;&gt;Function&lt;/span&gt;" style="text;html=1;align=center;verticalAlign=middle;resizable=0;points=[];autosize=1;strokeColor=none;fillColor=none;" parent="1" vertex="1">
                    <mxGeometry x="330" y="590" width="190" height="30" as="geometry"/>
                </mxCell>
                <mxCell id="245" value="" style="edgeStyle=none;orthogonalLoop=1;jettySize=auto;html=1;" parent="1" source="242" target="210" edge="1">
                    <mxGeometry width="100" relative="1" as="geometry">
                        <mxPoint x="530" y="504.52" as="sourcePoint"/>
                        <mxPoint x="630" y="504.52" as="targetPoint"/>
                        <Array as="points"/>
                    </mxGeometry>
                </mxCell>
                <mxCell id="247" value="" style="edgeStyle=none;orthogonalLoop=1;jettySize=auto;html=1;entryX=-0.007;entryY=0.663;entryDx=0;entryDy=0;entryPerimeter=0;" parent="1" source="244" target="210" edge="1">
                    <mxGeometry width="100" relative="1" as="geometry">
                        <mxPoint x="530" y="590" as="sourcePoint"/>
                        <mxPoint x="630" y="590" as="targetPoint"/>
                        <Array as="points"/>
                    </mxGeometry>
                </mxCell>
                <mxCell id="248" value="" style="edgeStyle=none;orthogonalLoop=1;jettySize=auto;html=1;exitX=1.001;exitY=0.473;exitDx=0;exitDy=0;exitPerimeter=0;" parent="1" source="243" target="210" edge="1">
                    <mxGeometry width="100" relative="1" as="geometry">
                        <mxPoint x="545" y="660" as="sourcePoint"/>
                        <mxPoint x="645" y="660" as="targetPoint"/>
                        <Array as="points"/>
                    </mxGeometry>
                </mxCell>
                <mxCell id="266" value="Basket Slider" style="whiteSpace=wrap;html=1;" parent="1" vertex="1">
                    <mxGeometry x="675" y="763" width="120" height="60" as="geometry"/>
                </mxCell>
                <mxCell id="275" value="&lt;div style=&quot;color: rgb(197, 200, 198); background-color: rgb(30, 30, 30); font-family: Consolas, &amp;quot;Courier New&amp;quot;, monospace; font-size: 14px; line-height: 19px;&quot;&gt;&lt;span style=&quot;color: #6089b4;&quot;&gt;purchaseComplete:&amp;nbsp;&lt;/span&gt;&lt;span style=&quot;color: rgb(154, 155, 153);&quot;&gt;State for puchase&lt;/span&gt;&lt;/div&gt;" style="text;html=1;align=center;verticalAlign=middle;resizable=0;points=[];autosize=1;strokeColor=none;fillColor=none;" parent="1" vertex="1">
                    <mxGeometry x="270" y="490" width="290" height="30" as="geometry"/>
                </mxCell>
                <mxCell id="277" value="" style="edgeStyle=none;orthogonalLoop=1;jettySize=auto;html=1;" parent="1" source="275" target="210" edge="1">
                    <mxGeometry width="100" relative="1" as="geometry">
                        <mxPoint x="570" y="490" as="sourcePoint"/>
                        <mxPoint x="670" y="490" as="targetPoint"/>
                        <Array as="points"/>
                    </mxGeometry>
                </mxCell>
                <mxCell id="295" value="" style="edgeStyle=none;orthogonalLoop=1;jettySize=auto;html=1;exitX=0.496;exitY=1.132;exitDx=0;exitDy=0;exitPerimeter=0;entryX=0.5;entryY=0;entryDx=0;entryDy=0;" parent="1" source="67" target="212" edge="1">
                    <mxGeometry width="100" relative="1" as="geometry">
                        <mxPoint x="280" y="300" as="sourcePoint"/>
                        <mxPoint x="380" y="300" as="targetPoint"/>
                        <Array as="points"/>
                    </mxGeometry>
                </mxCell>
                <mxCell id="332" value="" style="edgeStyle=none;orthogonalLoop=1;jettySize=auto;html=1;fillColor=#330000;entryX=0.5;entryY=0;entryDx=0;entryDy=0;exitX=0.5;exitY=1;exitDx=0;exitDy=0;" parent="1" source="350" target="76" edge="1">
                    <mxGeometry width="100" relative="1" as="geometry">
                        <mxPoint x="1390" y="340" as="sourcePoint"/>
                        <mxPoint x="1710" y="327" as="targetPoint"/>
                        <Array as="points"/>
                    </mxGeometry>
                </mxCell>
                <mxCell id="333" value="CLICK CAT CARD IMAGE CONTAINER" style="edgeLabel;html=1;align=center;verticalAlign=middle;resizable=0;points=[];" parent="332" vertex="1" connectable="0">
                    <mxGeometry x="-0.1226" y="-1" relative="1" as="geometry">
                        <mxPoint as="offset"/>
                    </mxGeometry>
                </mxCell>
                <mxCell id="334" value="" style="edgeStyle=none;orthogonalLoop=1;jettySize=auto;html=1;fillColor=#330000;entryX=0.5;entryY=0;entryDx=0;entryDy=0;exitX=0.5;exitY=1;exitDx=0;exitDy=0;" parent="1" source="350" target="68" edge="1">
                    <mxGeometry width="100" relative="1" as="geometry">
                        <mxPoint x="1390" y="340" as="sourcePoint"/>
                        <mxPoint x="1350" y="367" as="targetPoint"/>
                        <Array as="points"/>
                    </mxGeometry>
                </mxCell>
                <mxCell id="335" value="CLICK ADD TO BASKET ON CARD" style="edgeLabel;html=1;align=center;verticalAlign=middle;resizable=0;points=[];" parent="334" vertex="1" connectable="0">
                    <mxGeometry x="-0.2128" y="2" relative="1" as="geometry">
                        <mxPoint as="offset"/>
                    </mxGeometry>
                </mxCell>
                <mxCell id="340" value="NAVIGATE TO CONTACT PAGE&lt;br&gt;/Contact" style="whiteSpace=wrap;html=1;fillColor=#1ba1e2;strokeColor=#006EAF;fontColor=#ffffff;rounded=0;" parent="1" vertex="1">
                    <mxGeometry x="2000" y="15" width="120" height="60" as="geometry"/>
                </mxCell>
                <mxCell id="343" value="" style="edgeStyle=none;orthogonalLoop=1;jettySize=auto;html=1;fillColor=#330000;exitX=0.5;exitY=1;exitDx=0;exitDy=0;entryX=0.5;entryY=0;entryDx=0;entryDy=0;" parent="1" source="70" target="360" edge="1">
                    <mxGeometry width="100" relative="1" as="geometry">
                        <mxPoint x="1480" y="657" as="sourcePoint"/>
                        <mxPoint x="1525" y="767" as="targetPoint"/>
                        <Array as="points"/>
                    </mxGeometry>
                </mxCell>
                <mxCell id="350" value="Cat Card" style="shape=hexagon;perimeter=hexagonPerimeter2;whiteSpace=wrap;html=1;fixedSize=1;fillColor=#008a00;fontColor=#ffffff;strokeColor=#005700;" vertex="1" parent="1">
                    <mxGeometry x="1465" y="300" width="120" height="80" as="geometry"/>
                </mxCell>
                <mxCell id="355" style="edgeStyle=none;html=1;exitX=1;exitY=0.5;exitDx=0;exitDy=0;entryX=0;entryY=0.5;entryDx=0;entryDy=0;" edge="1" parent="1" source="354" target="340">
                    <mxGeometry relative="1" as="geometry"/>
                </mxCell>
                <mxCell id="356" style="edgeStyle=none;html=1;exitX=1;exitY=0.5;exitDx=0;exitDy=0;entryX=0;entryY=0.5;entryDx=0;entryDy=0;" edge="1" parent="1" source="354" target="131">
                    <mxGeometry relative="1" as="geometry"/>
                </mxCell>
                <mxCell id="358" style="edgeStyle=none;html=1;exitX=0.5;exitY=1;exitDx=0;exitDy=0;entryX=1;entryY=0.5;entryDx=0;entryDy=0;" edge="1" parent="1" source="354" target="360">
                    <mxGeometry relative="1" as="geometry">
                        <mxPoint x="1607.4999999999995" y="807" as="targetPoint"/>
                        <Array as="points">
                            <mxPoint x="1970" y="807"/>
                        </Array>
                    </mxGeometry>
                </mxCell>
                <mxCell id="359" value="CLICK BASKET ICON FROM NAV BAR" style="edgeLabel;html=1;align=center;verticalAlign=middle;resizable=0;points=[];" vertex="1" connectable="0" parent="358">
                    <mxGeometry x="0.0898" y="-1" relative="1" as="geometry">
                        <mxPoint as="offset"/>
                    </mxGeometry>
                </mxCell>
                <mxCell id="354" value="NavBar" style="shape=hexagon;perimeter=hexagonPerimeter2;whiteSpace=wrap;html=1;fixedSize=1;fillColor=#008a00;fontColor=#ffffff;strokeColor=#005700;" vertex="1" parent="1">
                    <mxGeometry x="1740" y="50" width="120" height="80" as="geometry"/>
                </mxCell>
                <mxCell id="360" value="Basket Slider Model" style="shape=hexagon;perimeter=hexagonPerimeter2;whiteSpace=wrap;html=1;fixedSize=1;fillColor=#008a00;fontColor=#ffffff;strokeColor=#005700;" vertex="1" parent="1">
                    <mxGeometry x="1465" y="768" width="120" height="80" as="geometry"/>
                </mxCell>
            </root>
        </mxGraphModel>
    </diagram>
</mxfile>